<svg xmlns="http://www.w3.org/2000/svg" viewBox="0 0 1175 263" height="37">
  <defs>
    <linearGradient id="b" x1="-8.56" y1="251.98" x2="234.87" y2="8.56" gradientUnits="userSpaceOnUse">
      <stop offset="0" stop-color="#087ee1"/>
      <stop offset=".74" stop-color="#05e8ba"/>
    </linearGradient>
    <clipPath id="a" transform="translate(8.4 -7.62)">
      <path d="M143.84 132.53a6.39 6.39 0 109.2-5.73c-2.13-15.82-9.11-29-20.41-37.74a6.25 6.25 0 00.2-1.57 6.38 6.38 0 10-2.43 5c10 8 16.2 19.68 18.33 33.82a6.39 6.39 0 00-4.89 6.22zM34.52 104.94A6.39 6.39 0 1043.27 99V67.44a6.39 6.39 0 10-4.07.22v31.13a6.37 6.37 0 00-4.68 6.15zm101.91-38.06a6.35 6.35 0 00-3.73 1.21c-11.43-5.9-25-9.21-40.34-9.21H69.15a6.38 6.38 0 10-.35 3.46h22.84c14.68 0 27.75 3.16 38.76 8.86a6.15 6.15 0 00-.35 2.06 6.39 6.39 0 106.38-6.38zm45.73 49.3A6.39 6.39 0 10190 110c-11.35-41.14-49.5-69.3-99.46-69.3H31.29a6.38 6.38 0 10-.14 3.37h58.52c46.79 0 84.55 25.87 95.84 66.51a6.37 6.37 0 00-3.35 5.6zM73 221.49a6.39 6.39 0 10.07-3.45h-29.8v-43.32a6.37 6.37 0 10-4.07.23v46.54zm99.32-84.68a83.06 83.06 0 00-7.39-35 6.39 6.39 0 10-4.52 1.88h.73a80.72 80.72 0 016.88 33.49c0 27.1-9.19 49.25-25.54 63.48a6.39 6.39 0 101.83 4.48 6.81 6.81 0 000-.78c18.05-15.02 28.05-38.78 28.05-67.55zM52.91 151.43a6.39 6.39 0 109-5.81V81.26h14.77a6.39 6.39 0 100-3.81H57.93v67.74a6.39 6.39 0 00-5.02 6.24zm158.65-16c0-46.23-26.31-83.89-67.29-102a6.24 6.24 0 00.08-1 6.4 6.4 0 10-2.11 4.73c38.43 17.35 64.12 52.78 64.12 98.83 0 29.34-8.89 56.14-25.5 76.85a6.48 6.48 0 00-2-.33 6.37 6.37 0 105.87 3.87c17.15-20.98 26.83-48.71 26.83-80.99zm-68.23 43h.06a6.4 6.4 0 10-4-1.39c-9.36 14.35-24.76 22.11-44.42 22.11H67.45a6.39 6.39 0 100 3.81h27.3c22.7-.03 38.95-9.29 48.58-24.57zm51.09-21.34a6.39 6.39 0 10-8.42 6c-9.92 42.58-44.3 73.22-96.54 73.22H51a6.37 6.37 0 10-.36 3.38h40.43c52.25 0 89.53-30.19 99.68-76.88a6.37 6.37 0 003.67-5.76zm-62.07 85.06a6.34 6.34 0 00-6.34 7.14 142.26 142.26 0 01-41.1 5.71h-80V25.35h50.26a6.39 6.39 0 10.12-3.68H0v237h87.07a145.77 145.77 0 0040.88-5.6 6.38 6.38 0 104.4-11zM27.88 77.86a6.39 6.39 0 10-8 6.16v138.9a6.38 6.38 0 104.27.34V83.68a6.39 6.39 0 003.73-5.82z" fill="none"/>
    </clipPath>
  </defs>
  <g clip-path="url(#a)">
    <path fill="url(#b)" d="M0 0h226.31v260.54H0z"/>
  </g>
  <path d="M272.4 140.16c.94 19.11 18.36 28.86 38.58 28.86 14.94 0 25.27-2.15 35.22-5.7l4.52 20.51c-10.67 4.42-25.08 7.88-43.72 7.88-39.66 0-63.37-23.44-63.37-58.35 0-29.45 19.47-61.58 60.36-61.58 41.52 0 53.61 33.49 53.61 56.66a51.83 51.83 0 01-1.2 11.72zm56.66-20.91c.1-8-4-27.39-26.88-27.39-20.1 0-28.33 16.26-29.87 27.39zM400.67 74.59L421.6 133c3.8 10.41 6.46 19.27 8.78 28.06h.73c2.42-9.06 5.25-17.82 8.81-28.06l20.48-58.41h32.2L444.53 188.9h-30.38L367.79 74.59zM544.02 41.92c0 8.64-6.43 16-17.34 16-10.35 0-16.78-7.34-16.78-16s6.63-16 17.11-16 16.87 7.13 17.01 16zm-32.23 147V74.59H542V188.9zM689.13 74.59c-.57 7.16-.93 16.08-.93 31.78v64.92c0 22.93-5.08 41.46-18.31 53s-31.59 14.39-47.61 14.39-33.36-3.52-44-10.23l6.63-22.92c8.08 5 21.9 10.13 37.26 10.13 20.06 0 36.37-10 36.37-35.74v-10h-.47c-7.38 10.64-20.16 18.2-37.36 18.2-30 0-53.1-22.79-53.1-55.74 0-37 26.5-60.57 56.48-60.57 20 0 31.32 9 37.29 19h.47l1-16.22zm-31.15 47.59a28.75 28.75 0 00-.84-7.6c-3.53-12.08-13.31-20.45-27.22-20.45-17.38 0-31.59 13.31-31.59 37.21 0 17.6 10.62 34.67 31.52 34.67a28.21 28.21 0 0026.85-19.39 39.79 39.79 0 001.28-10.33zM720.98 109.18c0-13.3-.37-24.76-.94-34.59h26.43l1.48 18.4h.73c4.94-8.77 18.23-21.21 39.56-21.21 20.22 0 44.44 12.18 44.44 51.55v65.57h-30.21v-61.83c0-18.06-7.22-31-24.63-31-13.26 0-22 9.24-25.31 18a25.51 25.51 0 00-1.34 8.76v66.12h-30.21zM886.55 140.16c.94 19.11 18.36 28.86 38.58 28.86 14.95 0 25.27-2.15 35.22-5.7l4.52 20.51c-10.67 4.42-25.08 7.88-43.72 7.88-39.66 0-63.37-23.44-63.37-58.35 0-29.45 19.48-61.58 60.36-61.58 41.52 0 53.61 33.49 53.61 56.66a51.83 51.83 0 01-1.14 11.72zm56.66-20.91c.1-8-4-27.39-26.88-27.39-20.09 0-28.33 16.26-29.87 27.39zM996.62 112.86c0-16.89-.24-27.93-.94-38.27h26.06l1 23.22h.84c6-17.6 20.65-26 34-26a28.19 28.19 0 017.27.7v27.87a41.78 41.78 0 00-9.51-1c-15.46 0-25.3 9.28-27.85 22.62a46.75 46.75 0 00-.64 8v58.91h-30.23zM1085.55 161.38c7.07 4.36 21 9.12 32.31 9.12 14 0 19.73-5.52 19.73-12.75 0-7.93-5.18-11.6-20.39-16-24.16-6.84-34.53-19.41-34.39-33.6 0-20.24 17.48-36.3 46.18-36.3 13.71 0 26 3.32 33.11 7.24l-5.93 20.89c-5-2.72-15.58-7.15-27-7.15-10.82 0-17 4.85-17 12.18 0 7.6 6.42 11.06 22 15.76 22.67 6.77 32.77 17.17 32.9 34.87 0 20.05-16.23 36.14-49.3 36.14-15.45 0-28.76-3.55-38.28-8.48z" fill="#2f2f2f"/>
</svg>
