<svg xmlns="http://www.w3.org/2000/svg" viewBox="0 0 985 188.64" height="34">
  <path d="M251 115.47a161.64 161.64 0 001 21.53 1.18 1.18 0 01-1.25 1.43h-15.67a1.51 1.51 0 01-1.24-1.07l-1.25-10.16h-.54c-5.34 7.67-14.79 13.19-26.91 13.19-18 0-28.34-13.37-28.34-28.16 0-23.71 20.32-35.65 52.76-36A1.21 1.21 0 00230.8 75c-.17-7.48-1.06-20.32-19.42-20.32a44.8 44.8 0 00-22.11 5.89 1.25 1.25 0 01-1.78-.72l-3.56-11.05a1.2 1.2 0 01.53-1.43c6.95-4.27 18-7.66 30.3-7.66 28.34 0 36.24 18.72 36.24 39.21zm-20-24.25a1.21 1.21 0 00-1.26-1.22c-15.69.17-33.16 3.38-33.16 20.14 0 10.69 6.6 15.51 14.26 15.51 11 0 20.14-8.38 20.14-19.61V91.22zM334.82 134.54a1 1 0 01-.71 1.25 65.05 65.05 0 01-23.88 4.45c-27.81 0-46.17-19.07-46.17-49.19 0-29.24 18.89-51.34 49.91-51.34a54.54 54.54 0 0120.68 3.92 1.22 1.22 0 01.71 1.43L332 58.25a1.47 1.47 0 01-1.78.89 38.27 38.27 0 00-16-3.21c-18.9 0-29.41 15.51-29.41 34.4 0 21.21 12.47 33.87 29.23 33.87a44.81 44.81 0 0016.68-3.2 1.12 1.12 0 011.61.89zM425.57 140.46H404a1.27 1.27 0 01-1.07-.53l-26.37-42.25a1.18 1.18 0 00-2-.18l-6.59 8a1.37 1.37 0 00-.36.89v33a1.22 1.22 0 01-1.24 1.25h-17.8a1.23 1.23 0 01-1.25-1.25V1.25A1.22 1.22 0 01348.57 0h17.83a1.21 1.21 0 011.24 1.25v86.09h.36c2.32-3.74 5-7.84 7.31-11.23L399 44.38a1.09 1.09 0 011.07-.53h20.68a1.16 1.16 0 01.89 2l-31.73 36.9a1.68 1.68 0 00-.17 1.6l36.54 54c.9 1.04.36 2.11-.71 2.11zM515.61 133.65a1.29 1.29 0 01-.71 1.42c-6.95 3-17.29 5.35-29.77 5.35-29.05 0-45.81-19.43-45.81-48.84 0-28.7 16.05-51.69 43.5-51.69 27.09 0 38 22.64 38 46.34 0 2.86-.18 5.35-.35 7.49a1.35 1.35 0 01-1.25 1.07h-58.86a1.21 1.21 0 00-1.25 1.21c1.07 20.85 14.26 28.7 29.23 28.7 10 0 16.93-1.61 23-3.93a1.12 1.12 0 011.6.89zm-15.33-53.3a1.21 1.21 0 001.25-1.25c-.18-11.4-5.17-24.59-20.14-24.59-14.26 0-20.68 13.54-22.1 24.59-.18.72.53 1.25 1.24 1.25zM582.34 60.61a1.26 1.26 0 01-1.42 1.24 32.72 32.72 0 00-4.64-.35c-13.55 0-22.28 11.23-22.28 28v49.91a1.23 1.23 0 01-1.25 1.25h-17.64a1.22 1.22 0 01-1.25-1.25V73.62c0-10.7-.18-19.61-.54-28.17a1.22 1.22 0 011.25-1.24h15.15a1.33 1.33 0 011.28 1.24l.53 14.09h.72c4.45-12.3 14.61-17.29 25.13-17.29a22.63 22.63 0 013.92.35 1.34 1.34 0 011.07 1.25zM670.61 133.65a1.29 1.29 0 01-.71 1.42c-6.95 3-17.29 5.35-29.77 5.35-29 0-45.81-19.43-45.81-48.84 0-28.7 16-51.69 43.5-51.69 27.09 0 38 22.64 38 46.34 0 2.86-.18 5.35-.35 7.49a1.35 1.35 0 01-1.25 1.07h-58.86a1.21 1.21 0 00-1.25 1.21c1.07 20.85 14.26 28.7 29.23 28.7 10 0 16.93-1.61 23-3.93a1.12 1.12 0 011.6.89zm-15.33-53.3a1.21 1.21 0 001.25-1.25c-.18-11.4-5.17-24.59-20.14-24.59-14.26 0-20.68 13.54-22.1 24.59-.18.72.53 1.25 1.24 1.25zM762.47 115.68a161.8 161.8 0 001.07 21.57 1.17 1.17 0 01-1.24 1.43h-15.69a1.55 1.55 0 01-1.25-1.07l-1.25-10.16h-.53c-5.35 7.66-14.79 13.19-26.92 13.19-18 0-28.34-13.37-28.34-28.16 0-23.71 20.32-35.65 52.76-36a1.22 1.22 0 001.25-1.25c-.18-7.49-1.07-20.32-19.43-20.32a44.89 44.89 0 00-22.1 5.88 1.25 1.25 0 01-1.78-.71l-3.57-11a1.19 1.19 0 01.54-1.43c7-4.28 18-7.66 30.3-7.66 28.34 0 36.18 18.71 36.18 39.21v36.54zm-19.78-24.24a1.23 1.23 0 00-1.25-1.25c-15.69.18-33.15 3.39-33.15 20.15 0 10.69 6.59 15.5 14.26 15.5 11.05 0 20.14-8.37 20.14-19.6v-14.8zM825.52 60.61a1.27 1.27 0 01-1.43 1.24 32.44 32.44 0 00-4.63-.35c-13.55 0-22.28 11.23-22.28 28v49.91a1.23 1.23 0 01-1.25 1.25h-17.82a1.22 1.22 0 01-1.25-1.25V73.62c0-10.7-.18-19.61-.54-28.17a1.22 1.22 0 011.25-1.24h15.15a1.33 1.33 0 011.28 1.24l.53 12.84h.9c4.45-12.3 14.61-16 25.13-16a22.63 22.63 0 013.92.35 1.35 1.35 0 011.07 1.25zM850.93 24.16l17.65-5.52a1.24 1.24 0 011.6 1.24v20.86a1.23 1.23 0 001.25 1.26h20.5a1.22 1.22 0 011.25 1.24v12.83a1.23 1.23 0 01-1.25 1.25h-20.5a1.22 1.22 0 00-1.25 1.24v47.6c0 11.94 3.74 17.64 12.3 17.64a28.47 28.47 0 007.49-.89 1.3 1.3 0 011.6 1.07l.54 13.19a1.34 1.34 0 01-.9 1.25c-3.56 1.25-8.55 2-15 2-8 0-14.79-2.67-19.07-7.31-5-5.17-7.13-13.37-7.13-25.84V58.56a1.22 1.22 0 00-1.25-1.24h-11.2a1.23 1.23 0 01-1.25-1.25V43.23a1.22 1.22 0 011.25-1.23H849a1.23 1.23 0 001.25-1.25V25.41a1 1 0 01.68-1.25zM983.75 140.64h-17.82a1.22 1.22 0 01-1.25-1.25V84.13c0-13.9-4.63-24.24-18.36-24.24-10 0-20.68 7-20.68 21.57v57.75a1.21 1.21 0 01-1.24 1.25h-17.83a1.22 1.22 0 01-1.25-1.25V1.25A1.22 1.22 0 01906.57 0h17.83a1.21 1.21 0 011.24 1.25v51h.36c7.66-9.45 17.29-10.88 27.63-10.16C969 43 984.11 52.58 985 82.35v57a1.34 1.34 0 01-1.25 1.29zM151.79.64H62v51h.82c7.72-10 17.28-11 27.71-10.23C105.94 42.32 121 52 122 81.89v57.36c0 .7-.39 1.39-1.09 1.39H103c-.69 0-2-.65-2-1.39V83.68c0-14-4.55-24.4-18.34-24.4-10 0-20.66 7-20.66 21.7v58.09c0 .7-.06.57-.8.57H43.26c-.7 0-2.26.18-2.26-.57V.64H12.39C5.79.64 0 5.91 0 12.51V177c0 6.6 5.79 11.66 12.39 11.66h139.4c6.6 0 11.21-5.06 11.21-11.66V12.51c0-6.6-4.61-11.87-11.21-11.87zm-19.79 164H31v-10h101z" fill="#323754"/>
</svg>
