<svg xmlns="http://www.w3.org/2000/svg" viewBox="0 0 458.65 283.46">
  <path d="M304.47,225.45l-.39,5.23-8-2.61,3.26-3.92Z" style="fill: #feb8b8;"/>
  <path d="M333.48,223.76l-.4,5.09-4.44.65L326,227l3-4.83Z" style="fill: #feb8b8;"/>
  <path d="M336.74,158.69s3.53,4.18-.91,10.58-9.8,12.67-9.8,12.67l-9.93,18.82s-5.1,18.42-6.27,19-1.83-1.57-1.18.65.26,2.09-.26,2.22-2-.13-1.44.78.92.92-.13.92-1.44-.65-1.44.26a12,12,0,0,1-.91,3s-6.4-1.83-6.66-2.62,1.69-1.17,1.3-2a2.92,2.92,0,0,1-.52-2,1.39,1.39,0,0,1,.78-1.43s.66-.27.4-.79-1.31-.26,0-.91,6.66-20.65,6.66-20.65,0-9.93,1.7-13.2.39-26.52,4.44-26.78S336.74,158.69,336.74,158.69Z" style="fill: #2f2e41;"/>
  <path d="M335.44,166.13l-.79,20.26s3.92,19.6,2.62,25.61-.4,5.22-1.18,6.27-1.44.52-.78,1.44,1,1.17,0,2.22a8.7,8.7,0,0,0-1.57,3.52l-6.67-.65s1.7-3,1.05-3.66-2.35.4-1.05-1,2.1-.78,1.31-1.44-2-.39-.91-1.44,2.22-1,1.17-1.43-2.22,0-1.7-.79,1.18-1.7,1.18-1.7l-1.57-11.89s-1.83-3.92-1.3-5.61S323,180.12,323,180.12Z" style="fill: #2f2e41;"/>
  <path d="M332.56,226.37s1.31-1.31,1.7-.52,3.27,7.84,1.57,8.36-4.18,1-5.49.65-4-2.22-7.31-2.22-6-1.44-6-2-.52-3.66,2-3.66,7.06-2.87,7.06-2.87,1-2.09,1.57-2,.13,4.31.13,4.31S330.73,229.37,332.56,226.37Z" style="fill: #2f2e41;"/>
  <path d="M303.56,228.07s1.17-2.88,2.35-2.22.39,8.75.39,8.75-1,1.7-4.05,1.31-11-1.31-12.81-.92-6.79-1.83-5.48-4.83c0,0,.65-1.7,3.79-1.57s8.88-3.66,8.88-3.66.92-2.61,1.18-2.35.52,4.83.52,4.83S301.73,229.64,303.56,228.07Z" style="fill: #2f2e41;"/>
  <circle cx="320.67" cy="100.02" r="7.58" style="fill: #feb8b8;"/>
  <path d="M326.55,100.54s4.05,8.1,5.49,8.89-9.8,5.62-9.8,5.62-1.83-8-4.05-9.67S326.55,100.54,326.55,100.54Z" style="fill: #feb8b8;"/>
  <path d="M314.92,166.79l-.52,5s-5.62-2-3.79-5.62Z" style="fill: #feb8b8;"/>
  <path d="M312.7,159.34c3.92,4.18,24.7.65,24.7.65l-.26-3,2.61-2.74L339,141.44a51.55,51.55,0,0,0,2.74-15.16,8.62,8.62,0,0,0-.1-1.68c-1.35-8.19-14.69-13.47-15.06-13.34-.18.06-2.15,1.08-4.2,2.16-2.35,1.23-4.81,2.54-4.81,2.54-3.14,1.18-2.62,20-3.66,21.69s0,7.58,0,7.58l-1.18,5.62S308.78,155.16,312.7,159.34Z" style="fill: #f0f0f0;"/>
  <path d="M325.37,117.86s3.66,11,2.87,18.42S319,165,319,165l-2.87,1.57v3.66l-2-5.48,5.56-11.63S312.69,113,325.37,117.86Z" style="isolation: isolate;
  opacity: 0.10000000149011612;"/>
  <path d="M321.94,114.57c3.79-2.09,9.54,3.4,15.55,9.27,2.15,2.12,3.4,1.9,4.12.76-1.35-8.19-14.69-13.47-15.06-13.34-.18.06-2.15,1.08-4.19,2.16Z" style="isolation: isolate;
  opacity: 0.10000000149011612;"/>
  <path d="M321.94,113.56l1.56-4.31s10.72-5.1,17.77,0l1.18,7.31s1,12.15-5,6.27S325.73,111.47,321.94,113.56Z" style="fill: #f0f0f0;"/>
  <path d="M325,116.09s3.66,11,2.88,18.42-9.28,28.75-9.28,28.75l-2.87,1.57v3.66l-6-1.7,1.3-4.31s-2.09-2.62-.65-3.4,1.18-5.1,1.18-5.1S312.31,111.26,325,116.09Z" style="fill: #f0f0f0;"/>
  <path d="M327.43,103.19a6.38,6.38,0,0,0-.39-1.74,2.74,2.74,0,0,0-2.28-1.2c-1.14-.1-2.29.09-3.44,0a3.58,3.58,0,0,1-2.93-1.51,7,7,0,0,0-.64-1.21,2.48,2.48,0,0,0-2.67-.3,4.93,4.93,0,0,1-2.76.52,6.17,6.17,0,0,1,1.83-6.27,14.11,14.11,0,0,1,6.08-3.11c2.91-.85,6.19-1.35,8.87.07C333,90.53,334.35,96,334,100.08c-.13,1.54-.35,3.29-1.6,4.33C330.56,105.93,328,105.8,327.43,103.19Z" style="fill: #2f2e41;"/>
  <rect x="116.2" y="47.59" width="163.68" height="104.83" style="fill: #e6e6e6;"/>
  <rect x="121.41" y="60.74" width="154.32" height="85.48" style="fill: #fff;"/>
  <rect x="116.13" y="47.5" width="163.68" height="6.95" style="fill: #00bfa6;"/>
  <circle cx="121.29" cy="51.06" r="1.29" style="fill: #fff;"/>
  <circle cx="126.19" cy="51.06" r="1.29" style="fill: #fff;"/>
  <circle cx="131.08" cy="51.06" r="1.29" style="fill: #fff;"/>
  <path d="M148.41,72.72,138.2,82.8l10.21,10.08,2.3-2.29L143,82.87l7.78-7.79Z" style="fill: #00bfa6;"/>
  <path d="M156.77,72.72,167,82.8,156.77,92.88l-2.29-2.29,7.72-7.72-7.79-7.79Z" style="fill: #00bfa6;"/>
  <path d="M189.79,75.25c-.83,0-1.51.48-1.51,1.07s.68,1.08,1.51,1.08h71.27c.83,0,1.51-.48,1.51-1.08s-.68-1.07-1.51-1.07Z" style="fill: #e6e6e6;"/>
  <path d="M260.35,134H140.47c-1.23,0-2.22-.71-2.22-1.58V111.27c0-.88,1-1.58,2.22-1.58H260.35c1.22,0,2.22.7,2.22,1.58v21.16C262.57,133.3,261.57,134,260.35,134ZM140.47,110.32c-.74,0-1.34.42-1.34,1v21.15c0,.53.6,1,1.34,1H260.35c.73,0,1.33-.42,1.33-1V111.27c0-.53-.6-1-1.33-1Z" style="fill: #e6e6e6;"/>
  <circle cx="152.81" cy="121.84" r="5.36" style="fill: #e6e6e6;"/>
  <path d="M167.94,117.55a1.07,1.07,0,1,0,0,2.14h50.56a1.07,1.07,0,1,0,0-2.14Z" style="fill: #00bfa6;"/>
  <path d="M167.94,124a1.09,1.09,0,0,0-1.08,1.07,1.07,1.07,0,0,0,1.07,1.08h21.76a1.08,1.08,0,0,0,0-2.15Z" style="fill: #00bfa6;"/>
  <path d="M189.27,81.68a1.07,1.07,0,0,0,0,2.14H236a1.07,1.07,0,0,0,0-2.14Z" style="fill: #e6e6e6;"/>
  <path d="M189.58,88.1a1.09,1.09,0,1,0,0,2.15H250.8a1.09,1.09,0,1,0,0-2.15Z" style="fill: #e6e6e6;"/>
</svg>
