<svg xmlns="http://www.w3.org/2000/svg" viewBox="0 0 244.1 235.4">
  <path fill="#0e99b7" d="M158.5.3h-.1.1zm-9.2 29-.3-.2L164.1.3h-60.8L6 117.6h97.1z"/>
  <path fill="#0b6e98" d="m150.5 208.9-47-91.3h-97l98.8 117.8 58.7-.2-.2-.4-.4.4z"/>
  <path fill="#0b587c" d="m173.6 191.2-24.5 14.9 1.4 2.8 12.9 26.3.4-.4 36.4-43.6z"/>
  <path fill="#0e6f99" d="M149.3 29.3 174.7 44h25.7L164.5.3h-.1l-.2-.3-.1.3L149 29.1z"/>
  <path fill="#028b9e" d="m151.3 147.7 2.4 1.3 84.3 37.8-.1-46.7-42.7-18.9-4.1 2z"/>
  <path fill="#00b3ca" d="M143.3 143.4zm48.2-20.5-.4.3 4.1-2 18.3-8.6V66.5l-.1.1h.1l-69.2 32.6v46.2z"/>
  <path fill="#02dffb" d="M199.5 66.5h-55.2v32.7z"/>
  <path fill="#028b9e" d="m213.4 66.6-13.9-.1-55.2 32.7 69.2-32.6z"/>
  <path fill="#33393a" d="m153.7 149 69.2 37.9h15.2l-.1-.1z"/>
  <path fill="#015f6b" d="m153.7 149-2.4-1.3 39.8-24.5.4-.3-47.2 22.5v41.5h78.6z"/>
</svg>
