<svg xmlns="http://www.w3.org/2000/svg" viewBox="0 0 458.65 283.46">
  <circle cx="131.09" cy="127.55" r="7.71" style="fill: #ffb8b8;"/>
  <polygon points="105.03 219.98 106.98 223.3 120.71 217.35 117.83 212.45 105.03 219.98" style="fill: #ffb8b8;"/>
  <path d="M105.61,218.5l3.85,6.53h0a4.84,4.84,0,0,1-1.71,6.62h0l-.14.08-6.3-10.7Z" style="fill: #2f2e41;"/>
  <polygon points="127.66 231.94 131.51 231.94 133.34 217.09 127.66 217.09 127.66 231.94" style="fill: #ffb8b8;"/>
  <path d="M126.68,230.68h7.58a4.83,4.83,0,0,1,4.83,4.83h0v.16H126.68Z" style="fill: #2f2e41;"/>
  <path d="M112.18,222.94a1.4,1.4,0,0,1-1.14-.58l-3.71-5a1.41,1.41,0,0,1,.3-2l.05,0,16.52-11-10-26.22,21.32,1.76.72,22.53a11.31,11.31,0,0,1-5.66,10.18l-17.73,10.23A1.41,1.41,0,0,1,112.18,222.94Z" style="fill: #2f2e41;"/>
  <path d="M127.77,228.92a1.41,1.41,0,0,1-1.41-1.36l-.78-21.95,9.68-.51-.77,22.11a1.43,1.43,0,0,1-1.32,1.36l-5.3.35Z" style="fill: #2f2e41;"/>
  <path d="M138,184.17c-2.46,0-11.06-2.77-14-3.75a8.48,8.48,0,0,1-5.77,1.85,6.75,6.75,0,0,1-4.62-3c-2.87-3.9.68-20.62,4.16-34a10.75,10.75,0,0,1,12.73-7.81h0a10.84,10.84,0,0,1,8.19,8c.66,2.67.09,5.81-.32,8.1a10.68,10.68,0,0,0-.29,2.35c.2,1.61,1.32,27,.6,28.05C138.58,184.12,138.36,184.17,138,184.17Z" style="fill: #00bfa6;"/>
  <path d="M129,184.22a3.38,3.38,0,0,0,.29-5.17l.15-30.73-7.23,1.21,2.12,29.82a3.4,3.4,0,0,0,4.67,4.87Z" style="fill: #ffb8b8;"/>
  <path d="M130.69,168.06h-7.8a1.43,1.43,0,0,1-1.41-1.4l-.19-21.14a5.53,5.53,0,0,1,11.06-.1v.12l-.25,21.12A1.43,1.43,0,0,1,130.69,168.06Z" style="fill: #00bfa6;"/>
  <path d="M129.13,135.23a7.84,7.84,0,0,1-7.48-6.27,9,9,0,0,1,.29-4.08A11,11,0,0,1,137,118a4.38,4.38,0,0,1,2.3,2,2,2,0,0,1-.78,2.68c-.62.28-1.4.14-1.94.54-.79.57-.59,1.79-.24,2.69s.75,2,.16,2.78a2.27,2.27,0,0,1-2.51.43,6.84,6.84,0,0,0-2.62-.63,3,3,0,0,0-2.44,2.75,9,9,0,0,0,.64,3.88Z" style="fill: #2f2e41;"/>
  <path d="M165.16,236h-81a.31.31,0,1,1,0-.62h81a.31.31,0,0,1,0,.62Z" style="fill: #ccc;"/>
  <path d="M369.65,184H168.39a5.21,5.21,0,0,1-5.19-5.19V54.69a3.81,3.81,0,0,1,3.8-3.8H371a3.87,3.87,0,0,1,3.86,3.87v124A5.2,5.2,0,0,1,369.65,184Z" style="fill: #f2f2f2;"/>
  <path d="M363.14,177.43H175.57a4.84,4.84,0,0,1-5-4.67V64.69a3.59,3.59,0,0,1,3.7-3.46H364.37a3.65,3.65,0,0,1,3.76,3.52v108A4.84,4.84,0,0,1,363.14,177.43Z" style="fill: #fff;"/>
  <path d="M374.76,55.34H163.13V52.7a5.21,5.21,0,0,1,5.2-5.2H369.56a5.2,5.2,0,0,1,5.2,5.2Z" style="fill: #3f3d56;"/>
  <circle cx="172.58" cy="51.43" r="1.35" style="fill: #fff;"/>
  <circle cx="177.69" cy="51.43" r="1.35" style="fill: #fff;"/>
  <circle cx="182.8" cy="51.43" r="1.35" style="fill: #fff;"/>
  <path d="M264.91,84.86H228.22a2.07,2.07,0,0,1,0-4.13h36.69a2.07,2.07,0,0,1,0,4.13Z" style="fill: #ccc;"/>
  <path d="M310.49,84.86H273.81a2.07,2.07,0,1,1,0-4.13h36.68a2.07,2.07,0,0,1,0,4.13Z" style="fill: #ccc;"/>
  <path d="M310.49,92.67H246.67a2.06,2.06,0,1,1,0-4.12h63.82a2.06,2.06,0,0,1,0,4.12Z" style="fill: #ccc;"/>
  <path d="M264.91,76.94H228.22a2.07,2.07,0,0,1,0-4.13h36.69a2.07,2.07,0,0,1,0,4.13Z" style="fill: #ccc;"/>
  <path d="M285.09,77H274.67a2.06,2.06,0,1,1,0-4.12h10.42a2.06,2.06,0,1,1,0,4.12Z" style="fill: #ccc;"/>
  <path d="M238.64,92.67H228.22a2.06,2.06,0,0,1,0-4.12h10.42a2.06,2.06,0,1,1,0,4.12Z" style="fill: #ccc;"/>
  <path d="M264.91,158H228.22a2.07,2.07,0,0,1,0-4.13h36.69a2.07,2.07,0,0,1,0,4.13Z" style="fill: #ccc;"/>
  <path d="M310.49,158H273.81a2.07,2.07,0,1,1,0-4.13h36.68a2.07,2.07,0,0,1,0,4.13Z" style="fill: #ccc;"/>
  <path d="M310.49,165.85H246.67a2.06,2.06,0,1,1,0-4.12h63.82a2.06,2.06,0,1,1,0,4.12Z" style="fill: #ccc;"/>
  <path d="M264.91,150.11H228.22a2.06,2.06,0,1,1,0-4.12h36.69a2.06,2.06,0,0,1,0,4.12Z" style="fill: #ccc;"/>
  <path d="M285.09,150.22H274.67a2.06,2.06,0,1,1,0-4.12h10.42a2.06,2.06,0,1,1,0,4.12Z" style="fill: #ccc;"/>
  <path d="M238.64,165.85H228.22a2.06,2.06,0,0,1,0-4.12h10.42a2.06,2.06,0,1,1,0,4.12Z" style="fill: #ccc;"/>
  <path d="M255.33,135.9a3,3,0,0,1-2.09-.85l-13.79-13.62a2.89,2.89,0,0,1,0-4.07l0,0,13.74-13.56a3,3,0,0,1,4.28,0h0a3,3,0,0,1,0,4.3l-10.2,10.2a1.7,1.7,0,0,0,0,2.4l10.15,10.16a3,3,0,0,1-2.09,5.05Z" style="fill: #00bfa6;"/>
  <path d="M277.3,135.9a3,3,0,0,1-2.1-5.05l10.16-10.16a1.7,1.7,0,0,0,0-2.4l-10.21-10.2a3,3,0,0,1,0-4.3h0a3,3,0,0,1,4.28,0l13.74,13.56a2.86,2.86,0,0,1,0,4.06l0,0-13.79,13.62A3,3,0,0,1,277.3,135.9Z" style="fill: #00bfa6;"/>
</svg>
