<svg xmlns="http://www.w3.org/2000/svg" viewBox="0 0 458.65 283.46">
  <path d="M105.9,152.64a4.21,4.21,0,1,0-8.41-.06,3.08,3.08,0,0,0,0,.61L85.44,169a5.83,5.83,0,0,0,.79,6.43l1,1.11,4.35-.87,4.93-4.35-.58-4.93,6.09-9.58h0A4.19,4.19,0,0,0,105.9,152.64Z" style="fill: #ffb9b9;"/>
  <polygon points="22.29 230.05 20.32 222.72 47.65 211.62 50.56 222.43 22.29 230.05" style="fill: #ffb8b8;"/>
  <path d="M15.69,233.83,9.33,210.19l.3-.08a9.53,9.53,0,0,1,11.67,6.73h0l3.89,14.43Z" style="fill: #2f2e41;"/>
  <polygon points="59.94 228.88 53.8 224.41 68.1 198.61 77.16 205.19 59.94 228.88" style="fill: #ffb8b8;"/>
  <path d="M57.18,236,37.39,221.57l.18-.25a9.52,9.52,0,0,1,13.31-2.1h0L63,228Z" style="fill: #2f2e41;"/>
  <path d="M112.13,192.82l-15.45-15a7.81,7.81,0,0,0-10.22-.57l-29.17,32.4,2.62,4.06,27.85-18.85,18.85,24.66,18-9Z" style="fill: #2f2e41;"/>
  <path d="M105.45,196l-11.31-.87-8.19-2A4.21,4.21,0,1,0,84.67,199a4.29,4.29,0,0,0,.48-.36h0l4.93,2,21.18,7.25,2.61-2Z" style="fill: #ffb9b9;"/>
  <polygon points="132.72 227.34 126.34 231.4 118.8 231.4 83.69 218.35 32.34 227.63 30.89 216.61 77.89 196.01 119.09 209.64 132.72 227.34" style="fill: #2f2e41;"/>
  <circle cx="119.09" cy="145.53" r="11.31" style="fill: #ffb9b9;"/>
  <path d="M148.37,190.7a65.06,65.06,0,0,1-3.19,20.11l-.85,2.6L140.27,232l-4.35,1.16-3.19-4.06-6.39-4.64-4.64-7.54-4-6.64-1.24-2.07-4.35-21.76-16.54-9.28-5.51-.87,1.16-3.19,4.93-6.67,4.93-.59,1.45-1.16,1.16.58,6.4,2.47L130.85,159l3,.49,10.44,8.71A64.94,64.94,0,0,1,148.37,190.7Z" style="fill: #ccc;"/>
  <polygon points="145.2 188.17 134.18 195.43 117.72 210.26 116.48 208.19 113 190.78 113.87 190.78 122.86 174.25 145.2 188.17" style="isolation: isolate;
  opacity: 0.10000000149011612;"/>
  <polygon points="122.86 172.51 113.87 189.04 108.64 194.85 104 196.01 116.48 209.64 134.18 193.69 145.2 186.43 122.86 172.51" style="fill: #ccc;"/>
  <path d="M110.29,137.11l-1.23.48a1.72,1.72,0,0,1-.45-2.38h0l0,0-2.27-.11a17.1,17.1,0,0,1,24-3.4A14.55,14.55,0,0,1,131.9,133c.1-.36,1.23.33,1.68,1,.16-.58,1.21,2.22,1.59,4.19.17-.65.83.41.25,1.43.37-.06.54.89.25,1.41.4-.19.34.94-.1,1.69.57-.05,0,11.79-8.68,10.93-.6-2.76-.43-2.59-1.14-6.14a13.84,13.84,0,0,0-1-1l-2-1.72c-2.26-2-4.32-4.47-7.34-5.22-2.07-.51-3.38-.63-2.25-3-1,.42-2,1.06-3,1.45A8.63,8.63,0,0,0,110.29,137.11Z" style="fill: #2f2e41;"/>
  <circle cx="124.75" cy="146.83" r="2.03" style="fill: #ffb9b9;"/>
  <rect x="29.72" y="99.17" width="9.33" height="9.33" transform="translate(-71.5 131.24) rotate(-86.19)" style="fill: #e6e6e6;"/>
  <path d="M24,103.81l11.3.75-.75,11.3-11.3-.75ZM34.81,105l-10.31-.69-.69,10.32,10.32.69Z" style="fill: #ccc;"/>
  <rect x="74.39" y="72.15" width="9.33" height="9.33" transform="translate(-14.37 18.32) rotate(-12.13)" style="fill: #e6e6e6;"/>
  <path d="M76.23,66.86l2.38,11.07L67.54,80.31,65.16,69.24ZM78,77.55,75.85,67.44,65.74,69.61l2.18,10.11Z" style="fill: #ccc;"/>
  <rect x="68.17" y="116.99" width="9.33" height="9.33" transform="matrix(0.73, -0.68, 0.68, 0.73, -63.49, 82.66)" style="fill: #e6e6e6;"/>
  <path d="M79.92,114.11l-8.27,7.74-7.74-8.26,8.26-7.75Zm-8.25,7,7.55-7.07-7.07-7.55-7.55,7.07Z" style="fill: #ccc;"/>
  <path d="M425.06,47.5H149.11a7.59,7.59,0,0,0-7.59,7.6h0V208.85a7.59,7.59,0,0,0,7.59,7.59h276a7.59,7.59,0,0,0,7.6-7.59V55.1a7.6,7.6,0,0,0-7.6-7.6Z" style="fill: #3f3d56;"/>
  <rect x="151.7" y="60.92" width="270.77" height="152.74" style="fill: #fff;"/>
  <circle cx="286.86" cy="53.98" r="2.78" style="fill: #fff;"/>
  <polygon points="345.04 213.67 151.7 213.67 151.7 60.92 345.04 213.67" style="fill: #f2f2f2;"/>
  <circle cx="194.07" cy="176.21" r="26.03" style="fill: #00bfa6;"/>
  <path d="M199.86,195.77a32.38,32.38,0,1,1,32.38-32.37,32.37,32.37,0,0,1-32.38,32.37Zm0-64.33a32,32,0,1,0,32,32,32,32,0,0,0-32-32Z" style="fill: #3f3d56;"/>
  <rect x="334.5" y="140.28" width="25.29" height="5.29" style="fill: #3f3d56;"/>
  <rect x="310.57" y="111.64" width="73.15" height="2.27" style="fill: #3f3d56;"/>
  <rect x="310.57" y="120.54" width="73.15" height="2.27" style="fill: #3f3d56;"/>
  <rect x="310.57" y="129.44" width="73.15" height="2.27" style="fill: #3f3d56;"/>
  <rect x="392.75" y="70.06" width="10.57" height="10.57" style="fill: #00bfa6;"/>
  <path d="M408.22,85.54H395.39V72.71h12.83ZM396,85h11.72V73.26H396Z" style="fill: #ccc;"/>
  <path d="M440.26,210.89H413.83V209a.38.38,0,0,0-.37-.37H404.4a.38.38,0,0,0-.38.37h0v1.91h-5.66V209a.38.38,0,0,0-.38-.37h-9.06a.38.38,0,0,0-.38.37h0v1.91h-5.66V209a.38.38,0,0,0-.38-.37h-9.06a.38.38,0,0,0-.38.37h0v1.91H367.4V209a.38.38,0,0,0-.38-.37H358a.38.38,0,0,0-.38.37h0v1.91h-5.66V209a.38.38,0,0,0-.38-.37h-9.06a.38.38,0,0,0-.37.37h0v1.91h-5.67V209a.37.37,0,0,0-.37-.37H327a.38.38,0,0,0-.38.37h0v1.91H321V209a.38.38,0,0,0-.38-.37h-71a.38.38,0,0,0-.38.37h0v1.91h-5.66V209a.38.38,0,0,0-.38-.37h-9.06a.38.38,0,0,0-.38.37h0v1.91H228.1V209a.38.38,0,0,0-.38-.37h-9.06a.38.38,0,0,0-.38.37h0v1.91h-5.66V209a.38.38,0,0,0-.38-.37h-9.06a.38.38,0,0,0-.37.37h0v1.91h-5.67V209a.38.38,0,0,0-.37-.37h-9.06a.38.38,0,0,0-.38.37h0v1.91h-5.66V209a.38.38,0,0,0-.38-.37h-9.06a.38.38,0,0,0-.38.37v1.91h-5.66V209a.38.38,0,0,0-.38-.37h-9.06a.38.38,0,0,0-.38.37h0v1.91H139A9.06,9.06,0,0,0,130,220v4.1a9.06,9.06,0,0,0,9.06,9.06H440.26a9.06,9.06,0,0,0,9.06-9.06V220a9.06,9.06,0,0,0-9.06-9.06Z" style="fill: #3f3d56;"/>
</svg>
