<svg xmlns="http://www.w3.org/2000/svg" viewBox="0 0 458.65 283.46">
  <polygon points="278.94 143.62 305.79 116.85 278.94 90.08 287.13 81.93 322.16 116.85 287.13 151.78 278.94 143.62 278.94 143.62" style="fill: #e6e6e6;"/>
  <rect x="202.27" y="106.11" width="10.91" height="10.91" style="fill: #e6e6e6;"/>
  <rect x="246.14" y="106.11" width="10.91" height="10.91" style="fill: #e6e6e6;"/>
  <rect x="224.21" y="106.11" width="10.91" height="10.91" style="fill: #e6e6e6;"/>
  <polygon points="187.48 143.34 160.61 116.58 187.46 89.81 179.27 81.65 144.26 116.58 179.3 151.5 187.48 143.34" style="fill: #e6e6e6;"/>
  <polygon points="278.94 138.43 305.79 111.67 278.94 84.9 287.13 76.74 322.16 111.67 287.13 146.59 278.94 138.43 278.94 138.43" style="fill: #00bfa6;"/>
  <path d="M202.27,113.58h10.91V102.66H202.27Zm54.79-10.92H246.14v10.92h10.92Zm-32.85,10.92h10.91V102.66H224.21Z" style="fill: #00bfa6;"/>
  <polygon points="187.48 138.16 160.61 111.39 187.46 84.63 179.27 76.47 144.26 111.39 179.3 146.32 187.48 138.16" style="fill: #00bfa6;"/>
  <polygon points="56.05 225.43 62.16 226.91 70.77 204.05 61.75 201.87 56.05 225.43" style="fill: #a0616a;"/>
  <path d="M53.16,230.92,55,223.16,67,226.05a7.82,7.82,0,0,1,5.76,9.42l0,.17Z" style="fill: #2f2e41;"/>
  <polygon points="83.1 229.59 89.39 229.59 92.38 205.35 83.1 205.35 83.1 229.59" style="fill: #a0616a;"/>
  <path d="M81.58,227.62h12.3a7.81,7.81,0,0,1,7.8,7.81v.17H81.58Z" style="fill: #2f2e41;"/>
  <path d="M81.63,221.2l1-37.71-1.39-15.3L78.55,180,66.68,218.67,56.45,216,68.3,174.24l-2.57-26.77,7.39-4.75.1,0,25.26,4.65-6.1,72.74Z" style="fill: #2f2e41;"/>
  <path d="M91.62,152.65a12.21,12.21,0,0,1-7.06-2.53c-8.47-6-18.58.45-18.68.52l-.41.27v-.49c0-.35,1-35,1-46.14,0-11.52,7.51-19.92,9.82-22.23s4.16-2.21,6.56-2.14l1.31,0c3.14,0,6.2,3,6.33,3.15l.06.06v.09L99.33,149l-.06.08A10.46,10.46,0,0,1,91.62,152.65Z" style="fill: #ccc;"/>
  <circle cx="85.53" cy="63.46" r="12.59" style="fill: #a0616a;"/>
  <path d="M104.81,163.17a5.16,5.16,0,0,1-.92-7.23,5.66,5.66,0,0,1,.62-.67L97.36,138.4l9.36,1.73,5.36,15.75a5.18,5.18,0,0,1-7.27,7.29Z" style="fill: #a0616a;"/>
  <path d="M102.78,153.57,89.86,127.21,84.2,107.37V90.13c0-.06,1.35-6.77,6.28-6.3,4.48.43,6.89,2.62,8.07,7.32,1,4-.37,15.82-.5,16.94.86,2,13.86,33,11.71,36.75a1,1,0,0,1-.34.35l2.3,4.86Z" style="fill: #ccc;"/>
  <path d="M83.92,68.2c1.51.2,2.65-1.35,3.18-2.78s.93-3.09,2.24-3.86c1.8-1.05,4.09.22,6.14-.13,2.32-.39,3.82-2.85,3.94-5.19s-.82-4.61-1.73-6.77l-.32,2.69A5.34,5.34,0,0,0,95,47.5l.41,3.94A4.19,4.19,0,0,0,90.65,48h0l.06,2.35a38.1,38.1,0,0,0-8-.39,13,13,0,0,0-7.42,2.85c-3,2.65-4.15,7-3.78,11s2,7.78,3.75,11.42c.44.92,1,2,2,2.07a2.07,2.07,0,0,0,2-1.52,5.48,5.48,0,0,0,0-2.7A11.38,11.38,0,0,1,78.9,69a3.32,3.32,0,0,1,2.58-2.86c1.37-.17,2.76,1.39,2.11,2.6Z" style="fill: #2f2e41;"/>
  <path d="M395.61,161.49a4.35,4.35,0,0,1,.4-6.15,4.44,4.44,0,0,1,.62-.45l-3.22-15.16,7.5,2.94,1.91,13.94a4.38,4.38,0,0,1-7.21,4.88Z" style="fill: #ffb8b8;"/>
  <path d="M394.76,149.67l0-.15c-4.05-15-8.24-30.48-13.35-47.35l0-.11.11-.06a10.18,10.18,0,0,1,10,.25,7.46,7.46,0,0,1,3.23,7.89l3.73,19.45c1.51,6.35,3.08,12.93,4.58,19.42l0,.18-.23,0c-2.73.17-5.55.35-7.81.45Z" style="fill: #ccc;"/>
  <polygon points="360.32 230.33 355.01 230.33 352.48 209.83 360.32 209.83 360.32 230.33" style="fill: #ffb8b8;"/>
  <path d="M361.68,235.48H344.54v-.22a6.69,6.69,0,0,1,6.67-6.67h10.47Z" style="fill: #2f2e41;"/>
  <polygon points="410.4 225.94 405.34 227.56 396.71 208.79 404.18 206.41 410.4 225.94" style="fill: #ffb8b8;"/>
  <path d="M396.93,235.64l-.06-.2a6.67,6.67,0,0,1,4.33-8.38l10-3.18,2.09,6.56Z" style="fill: #2f2e41;"/>
  <circle cx="383.51" cy="77.79" r="10.65" style="fill: #ffb8b8;"/>
  <path d="M388.29,75.82c.06-4.3-1.74-8.55-4.52-10.69a7.22,7.22,0,0,0-9.16.16c-2.74,2.24-4.45,6.56-4.3,10.85C376.44,76.15,382.57,76.17,388.29,75.82Z" style="fill: #2f2e41;"/>
  <path d="M363.36,223.73l-.21,0c-4.63-.46-9.41-.92-13.93-1H349l0-.24c1.07-7.76,1.52-15.82,2-23.61s.89-15.66,1.93-23.22c.44-2,.87-4,1.3-6,3.55-16.49,6.9-32.07,13.82-47.48l.06-.15.16,0a38,38,0,0,1,17.57,6.67l.09.07v.11a70.87,70.87,0,0,0,0,7.13,24.2,24.2,0,0,1,3.45,21.36c1.9,6.36,3.87,12.94,5.88,19.43,4.87,13.37,9.92,27.2,15.09,41.22l.08.23-.23.06a85.2,85.2,0,0,1-11.35,2.12l-.14,0-.07-.13a309.16,309.16,0,0,1-23.45-56.38,71.38,71.38,0,0,1-5,10.95,81.68,81.68,0,0,0-4.54,9.71c-.8,6.55-1,13.65-1.22,20.52-.19,6.5-.37,12.63-1,18.4Z" style="fill: #2f2e41;"/>
  <path d="M379.87,65.33a15.56,15.56,0,0,1,13.34,3.07,12.74,12.74,0,0,1,4,13.12c-1.49,4.62-6.54,7.87-11.11,6.67a9.15,9.15,0,0,0-3.37-10.34C378.92,75.33,377.87,69.31,379.87,65.33Z" style="fill: #2f2e41;"/>
  <path d="M385.47,129.16l-.17-.08c-5.88-2.68-11.66-4.74-17.06-6.62l-.17,0v-.48l.11,0,.07-.17a2.09,2.09,0,0,1,.17-.34h0c.45-.91.81-1.8,1.15-2.66s.73-1.8,1.21-2.77a8.38,8.38,0,0,1-1.86-9,9.47,9.47,0,0,1,7.45-5.4c1.17-3.23,3.78-10,3.78-10s5.5-.15,7.71-.43h.07c4.83,1.06,8.86,5.63,9.8,11.11.79,4.62-.41,9.91-3.4,14.9a65.31,65.31,0,0,1-5.08,7c-1.35,1.68-2.62,3.27-3.67,4.88Z" style="fill: #ccc;"/>
  <path d="M396.13,71.64a6.38,6.38,0,1,1,7.32-6A6.46,6.46,0,0,1,396.13,71.64Z" style="fill: #2f2e41;"/>
  <path d="M395.63,69.53a6.33,6.33,0,0,1-1.55-12.11A6.36,6.36,0,0,0,394.33,70a6.17,6.17,0,0,0,3.54-.5A6,6,0,0,1,395.63,69.53Z" style="fill: #2f2e41;"/>
  <path d="M333,126.75a4.35,4.35,0,0,1,5.93-1.67,4,4,0,0,1,.64.43l13.21-8.09-.27,8L340,131.92a4.38,4.38,0,0,1-7-5.17Z" style="fill: #ffb8b8;"/>
  <path d="M343.82,122l.13-.09c12.78-8.82,26-17.93,40.19-28.37l.1-.07.09.09a10.17,10.17,0,0,1,3.08,9.48,7.44,7.44,0,0,1-6.36,5.67l-17.09,10c-5.49,3.55-11.17,7.22-16.79,10.8l-.15.1-.1-.21c-1.07-2.52-2.18-5.12-3-7.22Z" style="fill: #ccc;"/>
  <path d="M165.6,236H.43a.43.43,0,0,1,0-.86H165.6a.43.43,0,0,1,0,.86Z" style="fill: #3f3d56;"/>
  <path d="M458.21,236H293.05a.43.43,0,1,1,0-.86H458.21a.43.43,0,1,1,0,.86Z" style="fill: #3f3d56;"/>
</svg>
